<svg xmlns="http://www.w3.org/2000/svg" viewBox="0 0 1200 400" preserveAspectRatio="xMidYMax slice">
  <defs>
    <linearGradient id="bldgShade" x1="0" y1="0" x2="0" y2="1">
      <stop offset="0%" stop-color="#1a2a3a"/>
      <stop offset="100%" stop-color="#0f1a2a"/>
    </linearGradient>
  </defs>
  <g fill="url(#bldgShade)">
    <!-- Far left cluster -->
    <rect x="0" y="280" width="28" height="120"/>
    <rect x="30" y="250" width="22" height="150"/>
    <rect x="54" y="300" width="18" height="100"/>
    <rect x="74" y="260" width="30" height="140"/>
    <rect x="106" y="310" width="20" height="90"/>

    <!-- Left buildings -->
    <rect x="140" y="200" width="35" height="200"/>
    <rect x="142" y="195" width="10" height="5"/>
    <rect x="177" y="240" width="25" height="160"/>
    <rect x="204" y="180" width="40" height="220"/>
    <rect x="214" y="170" width="20" height="10"/>
    <rect x="246" y="260" width="22" height="140"/>
    <rect x="270" y="220" width="30" height="180"/>

    <!-- Wayne Tower (tallest, center-left) -->
    <rect x="320" y="60" width="50" height="340"/>
    <rect x="330" y="40" width="30" height="20"/>
    <rect x="340" y="20" width="10" height="20"/>
    <polygon points="345,0 340,20 350,20"/>
    <rect x="315" y="55" width="60" height="8"/>

    <!-- Center-left cluster -->
    <rect x="375" y="160" width="35" height="240"/>
    <rect x="380" y="150" width="12" height="10"/>
    <rect x="412" y="200" width="28" height="200"/>
    <rect x="442" y="240" width="32" height="160"/>
    <rect x="476" y="180" width="26" height="220"/>

    <!-- GCPD Tower with searchlight base -->
    <rect x="520" y="100" width="45" height="300"/>
    <rect x="525" y="90" width="35" height="12"/>
    <rect x="535" y="75" width="15" height="15"/>
    <polygon points="542,60 535,75 550,75"/>

    <!-- Center cluster -->
    <rect x="570" y="220" width="24" height="180"/>
    <rect x="596" y="190" width="30" height="210"/>
    <rect x="628" y="250" width="20" height="150"/>
    <rect x="650" y="210" width="35" height="190"/>
    <rect x="652" y="200" width="14" height="10"/>
    <rect x="687" y="270" width="22" height="130"/>

    <!-- Arkham spire (center-right) -->
    <rect x="720" y="80" width="42" height="320"/>
    <rect x="725" y="70" width="32" height="12"/>
    <polygon points="741,30 725,70 757,70"/>
    <rect x="738" y="25" width="6" height="10"/>

    <!-- Center-right cluster -->
    <rect x="770" y="200" width="28" height="200"/>
    <rect x="800" y="170" width="34" height="230"/>
    <rect x="805" y="162" width="10" height="8"/>
    <rect x="836" y="230" width="24" height="170"/>
    <rect x="862" y="190" width="30" height="210"/>

    <!-- Right tower -->
    <rect x="910" y="120" width="38" height="280"/>
    <rect x="915" y="110" width="28" height="12"/>
    <rect x="922" y="95" width="14" height="15"/>

    <!-- Right cluster -->
    <rect x="955" y="240" width="26" height="160"/>
    <rect x="983" y="210" width="32" height="190"/>
    <rect x="1017" y="260" width="20" height="140"/>
    <rect x="1039" y="230" width="28" height="170"/>

    <!-- Far right buildings -->
    <rect x="1080" y="190" width="30" height="210"/>
    <rect x="1082" y="182" width="12" height="8"/>
    <rect x="1112" y="250" width="24" height="150"/>
    <rect x="1138" y="220" width="34" height="180"/>
    <rect x="1174" y="270" width="26" height="130"/>
  </g>
</svg>
